<mxfile host="app.diagrams.net" agent="Mozilla/5.0 (Windows NT 10.0; Win64; x64) AppleWebKit/537.36 (KHTML, like Gecko) Chrome/135.0.0.0 Safari/537.36" version="26.0.9">
  <diagram name="Strona-1" id="j44sBMdcvE5gEb1kRi88">
    <mxGraphModel dx="1232" dy="688" grid="1" gridSize="10" guides="1" tooltips="1" connect="1" arrows="1" fold="1" page="1" pageScale="1" pageWidth="827" pageHeight="1169" math="0" shadow="0">
      <root>
        <mxCell id="0" />
        <mxCell id="1" parent="0" />
        <mxCell id="QNfeoFTfYL9Rkn96jZjG-16" value="" style="edgeStyle=orthogonalEdgeStyle;rounded=0;orthogonalLoop=1;jettySize=auto;html=1;" edge="1" parent="1" source="QNfeoFTfYL9Rkn96jZjG-1" target="QNfeoFTfYL9Rkn96jZjG-2">
          <mxGeometry relative="1" as="geometry" />
        </mxCell>
        <mxCell id="QNfeoFTfYL9Rkn96jZjG-1" value="Użytkownik&lt;div&gt;&lt;br&gt;&lt;/div&gt;" style="shape=umlActor;verticalLabelPosition=bottom;verticalAlign=top;html=1;outlineConnect=0;" vertex="1" parent="1">
          <mxGeometry x="120" y="330" width="30" height="60" as="geometry" />
        </mxCell>
        <mxCell id="QNfeoFTfYL9Rkn96jZjG-9" value="" style="edgeStyle=orthogonalEdgeStyle;rounded=0;orthogonalLoop=1;jettySize=auto;html=1;" edge="1" parent="1" source="QNfeoFTfYL9Rkn96jZjG-2" target="QNfeoFTfYL9Rkn96jZjG-8">
          <mxGeometry relative="1" as="geometry" />
        </mxCell>
        <mxCell id="QNfeoFTfYL9Rkn96jZjG-12" value="include" style="edgeLabel;html=1;align=center;verticalAlign=middle;resizable=0;points=[];" vertex="1" connectable="0" parent="QNfeoFTfYL9Rkn96jZjG-9">
          <mxGeometry x="-0.1654" y="1" relative="1" as="geometry">
            <mxPoint as="offset" />
          </mxGeometry>
        </mxCell>
        <mxCell id="QNfeoFTfYL9Rkn96jZjG-14" value="extend" style="edgeStyle=orthogonalEdgeStyle;rounded=0;orthogonalLoop=1;jettySize=auto;html=1;entryX=0.5;entryY=1;entryDx=0;entryDy=0;" edge="1" parent="1" source="QNfeoFTfYL9Rkn96jZjG-13" target="QNfeoFTfYL9Rkn96jZjG-2">
          <mxGeometry x="0.5" relative="1" as="geometry">
            <Array as="points">
              <mxPoint x="320" y="540" />
            </Array>
            <mxPoint as="offset" />
          </mxGeometry>
        </mxCell>
        <mxCell id="QNfeoFTfYL9Rkn96jZjG-20" value="" style="edgeStyle=orthogonalEdgeStyle;rounded=0;orthogonalLoop=1;jettySize=auto;html=1;" edge="1" parent="1" source="QNfeoFTfYL9Rkn96jZjG-2" target="QNfeoFTfYL9Rkn96jZjG-19">
          <mxGeometry relative="1" as="geometry" />
        </mxCell>
        <mxCell id="QNfeoFTfYL9Rkn96jZjG-22" value="include" style="edgeLabel;html=1;align=center;verticalAlign=middle;resizable=0;points=[];" vertex="1" connectable="0" parent="QNfeoFTfYL9Rkn96jZjG-20">
          <mxGeometry x="-0.1853" y="1" relative="1" as="geometry">
            <mxPoint as="offset" />
          </mxGeometry>
        </mxCell>
        <mxCell id="QNfeoFTfYL9Rkn96jZjG-27" value="" style="edgeStyle=orthogonalEdgeStyle;rounded=0;orthogonalLoop=1;jettySize=auto;html=1;exitX=0;exitY=0;exitDx=0;exitDy=0;entryX=0.5;entryY=1;entryDx=0;entryDy=0;" edge="1" parent="1" source="QNfeoFTfYL9Rkn96jZjG-2" target="QNfeoFTfYL9Rkn96jZjG-26">
          <mxGeometry relative="1" as="geometry">
            <mxPoint x="237.57359312880726" y="341.7157287525381" as="sourcePoint" />
            <mxPoint x="50" y="220" as="targetPoint" />
            <Array as="points">
              <mxPoint x="278" y="270" />
              <mxPoint x="90" y="270" />
            </Array>
          </mxGeometry>
        </mxCell>
        <mxCell id="QNfeoFTfYL9Rkn96jZjG-28" value="extend" style="edgeLabel;html=1;align=center;verticalAlign=middle;resizable=0;points=[];" vertex="1" connectable="0" parent="QNfeoFTfYL9Rkn96jZjG-27">
          <mxGeometry x="-0.0861" y="1" relative="1" as="geometry">
            <mxPoint as="offset" />
          </mxGeometry>
        </mxCell>
        <mxCell id="QNfeoFTfYL9Rkn96jZjG-2" value="Zakup kursu" style="ellipse;whiteSpace=wrap;html=1;" vertex="1" parent="1">
          <mxGeometry x="260" y="320" width="120" height="80" as="geometry" />
        </mxCell>
        <mxCell id="QNfeoFTfYL9Rkn96jZjG-21" value="" style="edgeStyle=orthogonalEdgeStyle;rounded=0;orthogonalLoop=1;jettySize=auto;html=1;" edge="1" parent="1" source="QNfeoFTfYL9Rkn96jZjG-7" target="QNfeoFTfYL9Rkn96jZjG-19">
          <mxGeometry relative="1" as="geometry" />
        </mxCell>
        <mxCell id="QNfeoFTfYL9Rkn96jZjG-7" value="Autor" style="shape=umlActor;verticalLabelPosition=bottom;verticalAlign=top;html=1;outlineConnect=0;" vertex="1" parent="1">
          <mxGeometry x="305" y="20" width="30" height="60" as="geometry" />
        </mxCell>
        <mxCell id="QNfeoFTfYL9Rkn96jZjG-18" value="include" style="edgeStyle=orthogonalEdgeStyle;rounded=0;orthogonalLoop=1;jettySize=auto;html=1;" edge="1" parent="1" source="QNfeoFTfYL9Rkn96jZjG-8" target="QNfeoFTfYL9Rkn96jZjG-17">
          <mxGeometry relative="1" as="geometry" />
        </mxCell>
        <mxCell id="QNfeoFTfYL9Rkn96jZjG-8" value="Weryfikacja postępów" style="ellipse;whiteSpace=wrap;html=1;" vertex="1" parent="1">
          <mxGeometry x="520" y="320" width="120" height="80" as="geometry" />
        </mxCell>
        <mxCell id="QNfeoFTfYL9Rkn96jZjG-13" value="Zakup pakietu kursów o danej tematyce" style="ellipse;whiteSpace=wrap;html=1;" vertex="1" parent="1">
          <mxGeometry x="60" y="500" width="120" height="80" as="geometry" />
        </mxCell>
        <mxCell id="QNfeoFTfYL9Rkn96jZjG-17" value="Certyfikacja" style="ellipse;whiteSpace=wrap;html=1;" vertex="1" parent="1">
          <mxGeometry x="770" y="320" width="120" height="80" as="geometry" />
        </mxCell>
        <mxCell id="QNfeoFTfYL9Rkn96jZjG-24" value="" style="edgeStyle=orthogonalEdgeStyle;rounded=0;orthogonalLoop=1;jettySize=auto;html=1;" edge="1" parent="1" source="QNfeoFTfYL9Rkn96jZjG-23" target="QNfeoFTfYL9Rkn96jZjG-19">
          <mxGeometry relative="1" as="geometry" />
        </mxCell>
        <mxCell id="QNfeoFTfYL9Rkn96jZjG-25" value="extend" style="edgeLabel;html=1;align=center;verticalAlign=middle;resizable=0;points=[];" vertex="1" connectable="0" parent="QNfeoFTfYL9Rkn96jZjG-24">
          <mxGeometry x="-0.1139" relative="1" as="geometry">
            <mxPoint as="offset" />
          </mxGeometry>
        </mxCell>
        <mxCell id="QNfeoFTfYL9Rkn96jZjG-19" value="Materiały kursowe" style="ellipse;whiteSpace=wrap;html=1;" vertex="1" parent="1">
          <mxGeometry x="260" y="160" width="120" height="80" as="geometry" />
        </mxCell>
        <mxCell id="QNfeoFTfYL9Rkn96jZjG-23" value="Aktualizacja treści" style="ellipse;whiteSpace=wrap;html=1;" vertex="1" parent="1">
          <mxGeometry x="520" y="160" width="120" height="80" as="geometry" />
        </mxCell>
        <mxCell id="QNfeoFTfYL9Rkn96jZjG-26" value="Społeczność (inni kursanci, kontakt z autorem)" style="ellipse;whiteSpace=wrap;html=1;" vertex="1" parent="1">
          <mxGeometry x="30" y="160" width="120" height="80" as="geometry" />
        </mxCell>
      </root>
    </mxGraphModel>
  </diagram>
</mxfile>
